PathFileType	4	(X/Y/Z)	C:/Users/opensim2020/Desktop/walking_exp_matlab/subject06_walking20_straight_02.trc																																																																																																																															
DataRate	CameraRate	NumFrames	NumMarkers	Units	OrigDataRate	OrigDataStartFrame	OrigNumFrames																																																																																																																											
100	100	4	43	mm	100	1333	105																																																																																																																											
Frame#	Time	LFHD			RFHD			LBHD			RBHD			C7			T10			CLAV			STRN			RBAK			LSHO			LUPA			LELB			LFRM			LWRA			LWRB			LFIN			RSHO			RUPA			RELB			RFRM			RWRA			RWRB			RFIN			LASI			RASI			LPSI			RPSI			LTHI			LKNE			LTIB			LANK			LHEE			LTOE			RTHI			RKNE			RTIB			RANK			RHEE			RTOE			*39			*40			*41			*42		
		X1	Y1	Z1	X2	Y2	Z2	X3	Y3	Z3	X4	Y4	Z4	X5	Y5	Z5	X6	Y6	Z6	X7	Y7	Z7	X8	Y8	Z8	X9	Y9	Z9	X10	Y10	Z10	X11	Y11	Z11	X12	Y12	Z12	X13	Y13	Z13	X14	Y14	Z14	X15	Y15	Z15	X16	Y16	Z16	X17	Y17	Z17	X18	Y18	Z18	X19	Y19	Z19	X20	Y20	Z20	X21	Y21	Z21	X22	Y22	Z22	X23	Y23	Z23	X24	Y24	Z24	X25	Y25	Z25	X26	Y26	Z26	X27	Y27	Z27	X28	Y28	Z28	X29	Y29	Z29	X30	Y30	Z30	X31	Y31	Z31	X32	Y32	Z32	X33	Y33	Z33	X34	Y34	Z34	X35	Y35	Z35	X36	Y36	Z36	X37	Y37	Z37	X38	Y38	Z38	X39	Y39	Z39	X40	Y40	Z40	X41	Y41	Z41	X42	Y42	Z42	X43	Y43	Z43
																																																																																																																																		
92	0.91	181.12808	1672.09448	-1481.6803	174.58456	1656.08142	-1350.55591	45.76835	1623.05103	-1489.7804	41.04394	1612.44299	-1360.9209	40.96677	1457.7146	-1431.60364	14.82207	1128.78723	-1422.12634	152.32309	1383.8551	-1433.40503	198.05685	1209.53088	-1441.7616	-23.93448	1285.5011	-1347.78894	88.97031	1413.302	-1593.57007	82.24962	1209.67566	-1660.21838	77.19643	1096.29224	-1667.18359	112.53757	950.09204	-1690.57239	193.78311	845.7149	-1656.8595	128.83824	831.26727	-1683.01001	180.8551	758.07336	-1691.51355	109.75423	1416.12683	-1271.64758	66.25232	1224.93372	-1175.49854	71.8615	1103.67371	-1159.09741	104.23991	988.66339	-1140.98193	188.08302	863.99854	-1175.2561	134.85928	854.69281	-1134.6261	185.17761	787.39508	-1133.36243	186.23883	969.92419	-1539.34338	196.57864	976.21344	-1321.12805	30.02363	993.89722	-1506.50305	44.53275	1001.38074	-1338.99609	193.74921	662.30035	-1599.2876	252.29271	510.29773	-1577.7229	125.03265	297.22244	-1563.58716	47.43142	143.65323	-1523.27429	10.45069	143.50304	-1472.35669	161.25812	58.76802	-1539.22327	155.68646	639.31116	-1272.8219	162.35942	514.27448	-1302.02649	88.4462	255.9832	-1301.29834	41.01376	75.75748	-1341.07898	-4.73288	51.93596	-1381.76624	188.17599	40.4263	-1346.94617	79.57177	1711.724	-1425.19934	NaN	NaN	NaN	NaN	NaN	NaN	NaN	NaN	NaN
93	0.92	194.96405	1671.72754	-1481.86487	188.67572	1655.90906	-1350.63892	59.81366	1622.37024	-1489.6427	55.28157	1611.98901	-1360.7666	55.27741	1457.38989	-1431.21851	28.60628	1128.39856	-1421.24438	166.4864	1383.40369	-1433.07886	212.04811	1208.98706	-1441.12939	-9.68998	1285.42224	-1346.75342	102.78717	1412.72253	-1593.20166	93.43733	1209.10388	-1659.72461	86.49526	1095.91235	-1666.6095	116.61756	948.74744	-1690.44995	193.88445	840.87555	-1657.52417	127.86955	829.45813	-1683.38306	176.30165	753.47614	-1691.62451	124.41808	1415.97351	-1271.36621	82.13811	1225.06702	-1174.14233	88.93137	1104.02368	-1157.35791	124.90712	990.28809	-1139.75403	212.63171	868.9574	-1175.29565	160.33603	857.51556	-1134.48792	213.00238	792.21136	-1133.76831	200.43732	969.90088	-1538.11194	209.53299	975.1109	-1320.06555	43.87035	993.77588	-1506.31775	57.79741	1000.76367	-1338.83667	210.62379	663.92255	-1600.02686	270.88293	512.67438	-1577.73145	154.48036	292.25644	-1564.11768	87.21241	133.58841	-1524.39978	51.49495	130.44252	-1472.80359	205.97012	56.53847	-1543.10962	163.9841	638.05743	-1272.64685	168.39679	512.89349	-1301.21313	91.30914	255.39993	-1301.34558	41.55834	75.94901	-1341.32214	-4.41724	52.40717	-1382.03137	188.45753	40.22983	-1346.62695	93.51577	1711.25977	-1425.30725	NaN	NaN	NaN	NaN	NaN	NaN	NaN	NaN	NaN
94	0.93	208.9512	1671.12793	-1481.979	202.81259	1655.45654	-1350.67676	73.89684	1621.39307	-1489.55591	69.48232	1611.22925	-1360.67383	69.52928	1456.76477	-1430.75842	42.38935	1127.75281	-1420.4585	180.66324	1382.61194	-1432.80603	225.98154	1208.14014	-1440.52002	4.65298	1285.00464	-1345.7384	116.73882	1411.85327	-1592.89673	104.7515	1208.30127	-1659.26208	95.72833	1095.26331	-1666.06616	120.72355	947.20178	-1690.05994	193.9205	836.2981	-1658.20935	127.35868	827.68658	-1683.67969	172.23248	749.5191	-1692.08386	138.93759	1415.46545	-1271.06689	97.83468	1224.76514	-1172.88477	105.89793	1104.0575	-1155.70984	145.51666	991.7467	-1138.80139	236.94766	873.97394	-1175.61804	185.47205	860.3504	-1134.36597	240.33493	797.11108	-1134.43298	214.66335	969.49304	-1537.04004	222.36516	973.72131	-1318.96094	57.72648	993.25226	-1506.16528	70.66837	999.71179	-1338.3772	228.51233	665.99823	-1600.95642	288.56537	514.39215	-1577.79712	183.84155	287.12289	-1564.8678	127.84846	123.82188	-1525.88318	92.88725	117.76426	-1473.46936	251.17113	55.57895	-1547.2522	172.56023	636.72186	-1272.50256	174.65773	511.42459	-1300.40527	93.92539	254.88538	-1301.27161	42.09319	76.0578	-1341.45422	-4.09782	52.87221	-1382.2229	188.85233	39.8045	-1346.78906	107.4769	1710.49341	-1425.36279	NaN	NaN	NaN	NaN	NaN	NaN	NaN	NaN	NaN
95	0.94	223.04059	1670.1925	-1481.95569	217.05016	1654.71387	-1350.76489	88.04334	1620.19751	-1489.40601	83.77728	1610.2019	-1360.53796	83.91755	1455.77258	-1430.37341	56.10506	1126.88269	-1419.92383	194.95415	1381.60242	-1432.49976	239.92212	1206.98035	-1439.96338	18.76191	1284.24768	-1344.87415	130.99606	1410.66675	-1592.65784	116.15281	1207.20117	-1658.87671	104.97094	1094.4281	-1665.63379	124.97752	946.0882	-1690.41199	194.06918	832.05194	-1658.94214	127.28581	825.97876	-1683.93738	168.33824	745.86194	-1692.32568	153.40176	1414.63281	-1270.76355	113.49763	1224.16187	-1171.7981	122.79097	1103.82764	-1154.16858	165.77451	993.07959	-1137.81445	260.78415	878.90491	-1176.05688	210.3987	863.21521	-1134.34058	267.75378	802.33826	-1135.13647	229.25563	968.91412	-1536.28113	235.18111	972.1449	-1317.99109	71.587	992.39423	-1506.06787	83.69344	998.59991	-1338.26343	243.90724	666.22809	-1601.22388	305.3844	515.45898	-1577.77161	212.73894	281.88562	-1566.1084	168.97249	114.74112	-1527.43103	135.45279	105.86398	-1474.38879	296.24771	55.40839	-1551.53516	181.31021	635.33563	-1272.38562	180.65059	509.88834	-1299.48511	96.65619	254.37135	-1301.11609	42.59121	76.21778	-1341.5957	-3.8512	53.42213	-1382.39685	189.22342	39.63589	-1346.63513	121.42535	1709.43811	-1425.3739	NaN	NaN	NaN	NaN	NaN	NaN	NaN	NaN	NaN
